{"title":"The.Revenant.2015.DVDScr.x264.MICRO-REPACK","uid":13260389,"size":931328616,"categoryP":"video","categoryS":"movies","magnet":"?xt=urn:btih:2e890df347ada1a8b4d677cdeaa6acb19acf53f8&amp;dn=The.Revenant.2015.DVDScr.x264.MICRO-REPACK&amp;tr=udp%3A%2F%2Ftracker.leechers-paradise.org%3A6969&amp;tr=udp%3A%2F%2Fzer0day.ch%3A1337&amp;tr=udp%3A%2F%2Fopen.demonii.com%3A1337&amp;tr=udp%3A%2F%2Ftracker.coppersurfer.tk%3A6969&amp;tr=udp%3A%2F%2Fexodus.desync.com%3A6969","seeders":1,"leechers":2,"uploader":"mr98321","files":2,"time":1453263416,"description":"MICRO-REPACK\r\n\r\nOriginal Source: The Revenant (2015) DVDSCR x264 DD5.1-NoGrp\r\n\r\nGeneral\r\nFormat                                   : MPEG-4\r\nFormat profile                           : Base Media / Version 2\r\nCodec ID                                 : mp42 (isom/iso2/avc1/mp41)\r\nFile size                                : 888 MiB\r\nDuration                                 : 2h 36mn\r\nOverall bit rate                         : 794 Kbps\r\n\r\n\r\nVideo\r\nID                                       : 1\r\nFormat                                   : AVC\r\nFormat/Info                              : Advanced Video Codec\r\nFormat profile                           :   \r\nFormat settings, CABAC                   : Yes\r\nFormat settings, ReFrames                : 16 frames\r\nCodec ID                                 : avc1\r\nCodec ID/Info                            : Advanced Video Coding\r\nDuration                                 : 2h 36mn\r\nBit rate                                 : 599 Kbps\r\nWidth                                    : 720 pixels\r\nHeight                                   : 356 pixels\r\nDisplay aspect ratio                     : 2.40:1\r\nFrame rate mode                          : Constant\r\nFrame rate                               : 19.982 fps\r\nColor space                              : YUV\r\nChroma subsampling                       : 4:2:0\r\nBit depth                                : 8 bits\r\nScan type                                : Progressive\r\nBits/(Pixel*Frame)                       : 0.117\r\nStream size                              : 670 MiB (75%)\r\n\r\n\r\nAudio\r\nID                                       : 2\r\nFormat                                   : AC-3\r\nFormat/Info                              : Audio Coding 3\r\nMode extension                           : CM (complete main)\r\nFormat settings, Endianness              : Big\r\nCodec ID                                 : ac-3\r\nDuration                                 : 2h 36mn\r\nBit rate mode                            : Constant\r\nBit rate                                 : 192 Kbps\r\nChannel(s)                               : 2 channels\r\nChannel positions                        : Front: L R\r\nSampling rate                            : 48.0 KHz\r\nFrame rate                               : 31.250 fps (1536 spf)\r\nBit depth                                : 16 bits\r\nCompression mode                         : Lossy\r\nStream size                              : 215 MiB (24%)\r\nTitle                                    : Stereo / Stereo","torrent":{"xt":"urn:btih:2e890df347ada1a8b4d677cdeaa6acb19acf53f8","amp;dn":"The.Revenant.2015.DVDScr.x264.MICRO-REPACK","amp;tr":["udp%3A%2F%2Ftracker.leechers-paradise.org%3A6969","udp%3A%2F%2Fzer0day.ch%3A1337","udp%3A%2F%2Fopen.demonii.com%3A1337","udp%3A%2F%2Ftracker.coppersurfer.tk%3A6969","udp%3A%2F%2Fexodus.desync.com%3A6969"],"infoHash":"2e890df347ada1a8b4d677cdeaa6acb19acf53f8","infoHashBuffer":{"type":"Buffer","data":[46,137,13,243,71,173,161,168,180,214,119,205,234,166,172,177,154,207,83,248]},"announce":[],"urlList":[]}}